<svg xmlns="http://www.w3.org/2000/svg" width="37" height="33" viewBox="0 0 37 33"><g><g><g><path fill="#575eaa" d="M0 12.5C0 5.596 5.596 0 12.5 0S25 5.596 25 12.5 19.404 25 12.5 25 0 19.404 0 12.5z"/></g><g><path fill="#fff" d="M21.964 30.633V15.175l5.905-2.866v4.043c0 .456.374.83.83.83.458 0 .831-.374.831-.83v-4.853l5.054-2.451v15.459zM7.724 9.076l12.578 6.099v15.458L7.724 24.534zm13.41 4.652L8.782 7.74l5.898-2.86 12.35 5.989zm0-11.977l12.35 5.989-4.549 2.208-12.35-5.988zm15.112 5.982a.86.86 0 0 0-.084-.367.802.802 0 0 0-.56-.443L21.5.083a.837.837 0 0 0-.727 0L6.533 6.985a.834.834 0 0 0-.47.72V25.06c0 .319.18.61.47.748l14.24 6.902c.007 0 .007 0 .014.007.02.007.042.014.062.028.007 0 .014.007.028.007l.062.02c.007 0 .014.007.021.007.02.007.049.007.07.014h.02c.028 0 .062.007.09.007.028 0 .062 0 .09-.007h.02c.022 0 .05-.007.07-.014.007 0 .014-.007.02-.007l.063-.02c.007 0 .014-.007.028-.007a.246.246 0 0 0 .062-.028c.007 0 .007 0 .014-.007l14.282-6.923a.837.837 0 0 0 .47-.747V7.753c-.013-.006-.013-.013-.013-.02z"/></g></g></g></svg>