<svg xmlns="http://www.w3.org/2000/svg" width="31" height="33" viewBox="0 0 31 33"><g><g><g><path fill="#575eaa" d="M23.278 29.956v2.61H.457v-2.61c0-6.277 5.133-11.401 11.41-11.401 6.29.022 11.384 5.112 11.41 11.4z"/></g><g><path fill="#575eaa" d="M11.867 4.407a6.2 6.2 0 1 1 0 12.398 6.2 6.2 0 0 1 0-12.398z"/></g><g><g><path fill="#fff" d="M28.548 28.166H7.692v-1.632c0-5.76 4.67-10.428 10.428-10.428 5.76 0 10.428 4.668 10.428 10.428zM12.904 7.174a5.221 5.221 0 1 1 10.443 0 5.221 5.221 0 0 1-10.443 0zm6.57 7.05a7.177 7.177 0 1 0-2.718 0 12.4 12.4 0 0 0-11.02 12.31v3.588h24.768v-3.588a12.418 12.418 0 0 0-11.03-12.31z"/></g></g></g></g></svg>