<svg xmlns="http://www.w3.org/2000/svg" width="42" height="43" viewBox="0 0 42 43"><g><g><path fill="#ed3d60" d="M8 25.457c0-9.389 7.611-17 17-17s17 7.611 17 17-7.611 17-17 17-17-7.611-17-17z"/></g><g><path fill="#575eaa" d="M29.188 21.468L18.951 11.231 8.714 21.468l2.094 2.094 8.143-8.143 8.143 8.143zm5.753-2.517c0 8.817-7.173 15.99-15.99 15.99s-15.99-7.173-15.99-15.99 7.173-15.99 15.99-15.99 15.99 7.173 15.99 15.99zm-2.59 13.4a18.827 18.827 0 0 0 5.551-13.4c0-5.062-1.97-9.821-5.55-13.4A18.827 18.827 0 0 0 18.952 0 18.827 18.827 0 0 0 5.55 5.55 18.827 18.827 0 0 0 0 18.952c0 5.062 1.971 9.821 5.55 13.4a18.827 18.827 0 0 0 13.401 5.551c5.062 0 9.821-1.97 13.4-5.55z"/></g></g></svg>