<svg xmlns="http://www.w3.org/2000/svg" width="38" height="33" viewBox="0 0 38 33"><g><g><g><path fill="#575eaa" d="M32.91 7.994l-3.205 11.499a3.94 3.94 0 0 1-3.796 2.882H5.826l-.032.008-2.457-14.39z"/></g><g><path fill="#575eaa" d="M21.75 29.172a3.386 3.386 0 1 1 3.387 3.394 3.38 3.38 0 0 1-3.386-3.394z"/></g><g><path fill="#575eaa" d="M6.732 27.857a3.389 3.389 0 1 1 6.242 2.64 3.389 3.389 0 0 1-6.242-2.64z"/></g><g><g><path fill="#fff" d="M32.808 17.39a3.168 3.168 0 0 1-3.032 2.307h-19.46L8.125 6.891H35.73zm-19.099 7.3a2.599 2.599 0 1 1-2.433 1.686.953.953 0 0 0 .07-.158 2.573 2.573 0 0 1 2.363-1.527zm15.28 0a2.599 2.599 0 1 1 0 5.198 2.599 2.599 0 0 1 0-5.197zM7.857 5.317L7.62 3.93A4.71 4.71 0 0 0 2.967 0H1.33a.788.788 0 1 0 0 1.575h1.63a3.139 3.139 0 0 1 3.103 2.623l2.804 16.42.898 5.27a4.17 4.17 0 1 0 8.025 2.181h7.096a4.17 4.17 0 1 0 0-1.583H17.79a4.173 4.173 0 0 0-6.742-2.434l-.48-2.787h19.185a4.738 4.738 0 0 0 4.553-3.458L37.51 6.308a.792.792 0 0 0-.134-.685.715.715 0 0 0-.606-.307z"/></g></g></g></g></svg>