<svg xmlns="http://www.w3.org/2000/svg" width="33" height="33" viewBox="0 0 33 33"><g><g><g><g><path fill="#575eaa" d="M5.784 23.71C.73 18.635.739 10.427 5.804 5.363 10.866.299 19.074.29 24.15 5.343c5.07 5.073 5.07 13.294 0 18.367-5.062 5.062-13.304 5.062-18.366 0zm19.999.536c5.167-5.749 4.93-14.535-.536-20-5.606-5.596-14.662-5.67-20.36-.168-5.697 5.503-5.937 14.556-.54 20.353 5.398 5.797 14.445 6.203 20.34.911l6.998 6.999a.763.763 0 0 0 .552.225.774.774 0 0 0 .552-1.322z"/></g></g></g><g><path fill="#ed3d60" d="M20.547 23.284a9.943 9.943 0 0 1-7.397 1.353 9.946 9.946 0 0 1-6.259-4.2 9.946 9.946 0 0 1-1.55-7.376 9.943 9.943 0 0 1 4.027-6.352l11.179 16.574z"/></g></g></svg>