<?xml version="1.0" encoding="UTF-8" standalone="no"?>
<svg
   xmlns:dc="http://purl.org/dc/elements/1.1/"
   xmlns:cc="http://creativecommons.org/ns#"
   xmlns:rdf="http://www.w3.org/1999/02/22-rdf-syntax-ns#"
   xmlns:svg="http://www.w3.org/2000/svg"
   xmlns="http://www.w3.org/2000/svg"
   xmlns:sodipodi="http://sodipodi.sourceforge.net/DTD/sodipodi-0.dtd"
   xmlns:inkscape="http://www.inkscape.org/namespaces/inkscape"
   width="19.835281"
   height="20.670897"
   viewBox="0 0 19.835281 20.670897"
   version="1.1"
   id="svg38"
   sodipodi:docname="percentage.svg"
   inkscape:version="0.92.4 (f8dce91, 2019-08-02)">
  <metadata
     id="metadata44">
    <rdf:RDF>
      <cc:Work
         rdf:about="">
        <dc:format>image/svg+xml</dc:format>
        <dc:type
           rdf:resource="http://purl.org/dc/dcmitype/StillImage" />
      </cc:Work>
    </rdf:RDF>
  </metadata>
  <defs
     id="defs42" />
  <sodipodi:namedview
     pagecolor="#ffffff"
     bordercolor="#666666"
     borderopacity="1"
     objecttolerance="10"
     gridtolerance="10"
     guidetolerance="10"
     inkscape:pageopacity="0"
     inkscape:pageshadow="2"
     inkscape:window-width="1920"
     inkscape:window-height="1051"
     id="namedview40"
     showgrid="false"
     inkscape:zoom="11.238095"
     inkscape:cx="10.061141"
     inkscape:cy="10.171296"
     inkscape:window-x="1366"
     inkscape:window-y="0"
     inkscape:window-maximized="1"
     inkscape:current-layer="svg38" />
  <g
     id="g36"
     transform="translate(-0.43885905,-3.9859467e-4)">
    <g
       id="g34">
      <g
         id="g8">
        <g
           id="g6">
          <g
             id="g4">
            <path
               d="m 18.755,13.51 -1.551,0.824 a 1.79,1.79 0 0 0 -0.93,1.28 l -0.303,1.729 a 0.607,0.607 0 0 1 -0.686,0.498 l -1.739,-0.246 a 1.79,1.79 0 0 0 -1.505,0.49 l -1.261,1.22 a 0.607,0.607 0 0 1 -0.848,0 L 8.67,18.085 A 1.789,1.789 0 0 0 7.165,17.595 L 5.427,17.841 A 0.607,0.607 0 0 1 4.741,17.343 l -0.303,-1.73 a 1.79,1.79 0 0 0 -0.93,-1.28 L 1.956,13.511 A 0.607,0.607 0 0 1 1.694,12.704 l 0.771,-1.577 a 1.79,1.79 0 0 0 0,-1.582 L 1.695,7.967 A 0.607,0.607 0 0 1 1.956,7.161 L 3.507,6.338 a 1.79,1.79 0 0 0 0.93,-1.28 L 4.741,3.328 A 0.607,0.607 0 0 1 5.427,2.831 L 7.165,3.076 A 1.79,1.79 0 0 0 8.67,2.587 l 1.262,-1.22 c 0.237,-0.23 0.61,-0.23 0.847,0 l 1.262,1.22 c 0.403,0.39 0.951,0.568 1.505,0.49 l 1.739,-0.246 a 0.607,0.607 0 0 1 0.685,0.498 l 0.304,1.729 a 1.79,1.79 0 0 0 0.93,1.28 l 1.55,0.823 c 0.293,0.155 0.408,0.51 0.263,0.806 l -0.771,1.578 a 1.79,1.79 0 0 0 0,1.582 l 0.77,1.577 a 0.607,0.607 0 0 1 -0.261,0.807 z m 0.562,-2.906 a 0.606,0.606 0 0 1 0,-0.536 l 0.77,-1.577 c 0.43,-0.878 0.09,-1.925 -0.773,-2.383 L 17.763,5.285 A 0.606,0.606 0 0 1 17.448,4.852 L 17.145,3.122 A 1.795,1.795 0 0 0 15.118,1.65 L 13.379,1.896 A 0.606,0.606 0 0 1 12.87,1.73 L 11.608,0.51 a 1.794,1.794 0 0 0 -2.505,0 L 7.84,1.73 A 0.606,0.606 0 0 1 7.33,1.896 L 5.595,1.65 A 1.794,1.794 0 0 0 3.568,3.123 L 3.264,4.853 A 0.606,0.606 0 0 1 2.95,5.285 L 1.399,6.108 A 1.795,1.795 0 0 0 0.624,8.491 l 0.771,1.577 a 0.606,0.606 0 0 1 0,0.536 l -0.77,1.577 c -0.43,0.878 -0.09,1.925 0.774,2.383 l 1.55,0.823 a 0.606,0.606 0 0 1 0.315,0.433 l 0.304,1.73 a 1.793,1.793 0 0 0 2.027,1.472 l 1.738,-0.246 a 0.606,0.606 0 0 1 0.51,0.165 l 1.26,1.221 a 1.796,1.796 0 0 0 2.506,0 l 1.262,-1.22 a 0.606,0.606 0 0 1 0.51,-0.166 l 1.738,0.246 a 1.794,1.794 0 0 0 2.027,-1.473 l 0.303,-1.729 a 0.606,0.606 0 0 1 0.315,-0.433 l 1.55,-0.823 a 1.795,1.795 0 0 0 0.775,-2.383 z"
               id="path2"
               inkscape:connector-curvature="0"
               style="fill:#575eaa" />
          </g>
        </g>
      </g>
      <g
         id="g16">
        <g
           id="g14">
          <g
             id="g12">
            <path
               d="m 14.711,5.98 a 0.596,0.596 0 0 0 -0.843,0 L 6,13.85 a 0.59609102,0.59609102 0 0 0 0.843,0.843 l 7.868,-7.869 a 0.596,0.596 0 0 0 0,-0.843 z"
               id="path10"
               inkscape:connector-curvature="0"
               style="fill:#575eaa" />
          </g>
        </g>
      </g>
      <g
         id="g24">
        <g
           id="g22">
          <g
             id="g20">
            <path
               d="m 7.971,8.15 a 0.995,0.995 0 0 1 0,-1.987 0.995,0.995 0 0 1 0,1.987 z m 0,-3.18 c -1.205,0 -2.186,0.981 -2.186,2.187 0,1.205 0.98,2.185 2.186,2.185 1.205,0 2.186,-0.98 2.186,-2.185 0,-1.206 -0.98,-2.186 -2.186,-2.186 z"
               id="path18"
               inkscape:connector-curvature="0"
               style="fill:#575eaa" />
          </g>
        </g>
      </g>
      <g
         id="g32">
        <g
           id="g30">
          <g
             id="g28">
            <path
               d="m 12.74,14.509 a 0.995,0.995 0 0 1 0,-1.987 0.995,0.995 0 0 1 0,1.987 z m 0,-3.18 c -1.205,0 -2.186,0.981 -2.186,2.186 0,1.206 0.98,2.186 2.186,2.186 1.205,0 2.186,-0.98 2.186,-2.186 0,-1.205 -0.98,-2.186 -2.186,-2.186 z"
               id="path26"
               inkscape:connector-curvature="0"
               style="fill:#575eaa" />
          </g>
        </g>
      </g>
    </g>
  </g>
</svg>
