<?xml version="1.0" encoding="UTF-8" standalone="no"?>
<svg
   xmlns:dc="http://purl.org/dc/elements/1.1/"
   xmlns:cc="http://creativecommons.org/ns#"
   xmlns:rdf="http://www.w3.org/1999/02/22-rdf-syntax-ns#"
   xmlns:svg="http://www.w3.org/2000/svg"
   xmlns="http://www.w3.org/2000/svg"
   xmlns:sodipodi="http://sodipodi.sourceforge.net/DTD/sodipodi-0.dtd"
   xmlns:inkscape="http://www.inkscape.org/namespaces/inkscape"
   width="20.273001"
   height="15.204"
   viewBox="0 0 20.273001 15.204"
   version="1.1"
   id="svg8"
   sodipodi:docname="billet.svg"
   inkscape:version="0.92.4 (f8dce91, 2019-08-02)">
  <metadata
     id="metadata14">
    <rdf:RDF>
      <cc:Work
         rdf:about="">
        <dc:format>image/svg+xml</dc:format>
        <dc:type
           rdf:resource="http://purl.org/dc/dcmitype/StillImage" />
      </cc:Work>
    </rdf:RDF>
  </metadata>
  <defs
     id="defs12" />
  <sodipodi:namedview
     pagecolor="#ffffff"
     bordercolor="#666666"
     borderopacity="1"
     objecttolerance="10"
     gridtolerance="10"
     guidetolerance="10"
     inkscape:pageopacity="0"
     inkscape:pageshadow="2"
     inkscape:window-width="1920"
     inkscape:window-height="1051"
     id="namedview10"
     showgrid="false"
     inkscape:zoom="14.75"
     inkscape:cx="10.5"
     inkscape:cy="7.297"
     inkscape:window-x="1366"
     inkscape:window-y="0"
     inkscape:window-maximized="1"
     inkscape:current-layer="svg8" />
  <g
     id="g6"
     transform="translate(0,-0.093)">
    <g
       id="g4">
      <path
         d="m 1.267,3.894 v -1.9 c 0,-0.35 0.284,-0.634 0.634,-0.634 h 16.472 c 0.35,0 0.633,0.284 0.633,0.633 v 1.9 z m 17.74,9.503 c 0,0.35 -0.285,0.633 -0.634,0.633 H 1.9 A 0.634,0.634 0 0 1 1.266,13.397 V 5.16 h 17.74 v 8.236 z M 18.372,0.093 H 1.9 C 0.853,0.093 0,0.945 0,1.993 v 11.404 c 0,1.048 0.853,1.9 1.9,1.9 h 16.473 c 1.048,0 1.9,-0.852 1.9,-1.9 V 1.993 c 0,-1.048 -0.852,-1.9 -1.9,-1.9 z"
         id="path2"
         inkscape:connector-curvature="0"
         style="fill:#575eaa" />
    </g>
  </g>
</svg>
